<svg width="2000" height="2000" viewBox="0 0 2000 2000" fill="none" xmlns="http://www.w3.org/2000/svg">
<path d="M1001.9 643.838L1001.34 643.286L1000.79 643.838L646.782 997.926V780.824L1001.42 426.105L1109.97 534.653L1109.89 534.734L1110.44 535.287L1353.7 778.543L1354.01 996.031L1001.9 643.838Z" fill="white" stroke="white" stroke-width="1.5625"/>
<path d="M1001.9 931.838L1001.34 931.286L1000.79 931.838L646.782 1285.93V1068.82L1001.42 714.105L1109.97 822.653L1109.89 822.734L1110.44 823.287L1353.7 1066.54L1354.01 1284.03L1001.9 931.838Z" fill="white" stroke="white" stroke-width="1.5625"/>
<mask id="path-3-inside-1_1_11" fill="white">
<path d="M1001.42 1001L646 1356.5V1575.81C646 1575.81 890.186 1331.28 1001.34 1220.39C1112.5 1109.5 1001.42 1001 1001.42 1001Z"/>
</mask>
<path d="M1001.42 1001L646 1356.5V1575.81C646 1575.81 890.186 1331.28 1001.34 1220.39C1112.5 1109.5 1001.42 1001 1001.42 1001Z" fill="white"/>
<path d="M1001.97 1001.55C1001.61 1001.18 1001.24 1000.82 1000.87 1000.45C981.775 1016.03 962.732 1031.67 943.741 1047.36C832.958 1138.87 723.938 1232.15 616.68 1327.19L605.727 1336.89L604.54 1356.5C600.117 1429.6 596.345 1502.71 593.224 1575.81L589.751 1701.8L683.345 1613.1C806.583 1499.84 927.91 1383.64 1046.53 1265.68C1053.69 1258.55 1060.22 1251.39 1066.73 1243.32C1111.9 1194.1 1117.54 1097.62 1073.87 1049.82C1054.35 1025.48 1029.14 1008.85 1001.97 1000.44C1001.6 1000.81 1001.24 1001.19 1000.88 1001.56C1007.45 1028.51 1009.21 1054.08 1007.56 1075.44C1003.16 1120.76 987.135 1136.21 967.087 1162.98C963.789 1167.06 960.27 1170.97 956.159 1175.1C837.805 1293.68 721.813 1415.11 608.655 1538.52L698.777 1575.81C695.655 1502.71 691.883 1429.6 687.46 1356.5L675.32 1385.81C770.335 1278.53 863.588 1169.49 955.079 1058.69C970.762 1039.7 986.394 1020.65 1001.97 1001.55ZM1000.87 1000.45L1001.97 1001.55L1000.88 1001.56L1001.97 1000.44L1001.76 999.722L1000.87 1000.45Z" fill="white" mask="url(#path-3-inside-1_1_11)"/>
</svg>
